<?xml version="1.0" encoding="iso-8859-1"?>
<!-- Generator: Adobe Illustrator 19.0.0, SVG Export Plug-In . SVG Version: 6.00 Build 0)  -->
<svg version="1.1" id="Layer_1" xmlns="http://www.w3.org/2000/svg" xmlns:xlink="http://www.w3.org/1999/xlink" x="0px" y="0px"
	 viewBox="0 0 508 508" style="enable-background:new 0 0 508 508;" xml:space="preserve">
<circle style="fill:#54C0EB;" cx="254" cy="254" r="254"/>
<g>
	<ellipse style="fill:#FFFFFF;" cx="339.6" cy="252.4" rx="34.4" ry="43.2"/>
	
		<ellipse transform="matrix(0.3227 -0.9465 0.9465 0.3227 17.0836 523.0548)" style="fill:#FFFFFF;" cx="374.017" cy="249.591" rx="12" ry="6.4"/>
	
		<ellipse transform="matrix(0.3227 0.9465 -0.9465 0.3227 442.9337 -119.5553)" style="fill:#FFFFFF;" cx="305.004" cy="249.714" rx="12" ry="6.4"/>
</g>
<path style="fill:#324A5E;" d="M308.4,258.8c-18-37.2,7.2-49.2,7.2-49.2l-11.6,6.8c35.2-42.4,60.8-7.6,60.8-7.6
	c24.4,18.8,8.8,47.6,8.8,47.6s-2.8-20.8-13.2-30.4c0,0-12.4,14.4-41.6,1.2c0,0-6.8,10.4-4.4,24c0,0-2.8-2-3.6-9.2
	C310,242,306.4,251.2,308.4,258.8L308.4,258.8z"/>
<g>
	<polygon style="fill:#FFFFFF;" points="334,305.2 331.2,308 339.6,316 347.6,308 345.2,305.2 	"/>
	<polygon style="fill:#FFFFFF;" points="336.4,310.8 330.8,355.2 339.6,364.8 348,355.2 342.8,310.8 	"/>
</g>
<path style="fill:#324A5E;" d="M418.8,374c-22.4,10-49.6,16-79.2,16s-56.8-6-79.6-16c2.4-33.6,20-62,44.8-76l34.8,66.8L374,298
	C398.8,312,416.4,340.4,418.8,374z"/>
<circle style="fill:#FFD05B;" cx="187.2" cy="216" r="98.4"/>
<circle style="fill:#F9B54C;" cx="187.2" cy="216" r="78"/>
<circle style="fill:#FFD05B;" cx="187.2" cy="216" r="68.4"/>
<path style="fill:#FFFFFF;" d="M184.4,268.8v-9.2c-11.6-1.2-22-5.6-31.2-14l9.2-11.2c7.2,6,14.4,10,22,11.2v-24.8
	c-9.6-2.4-16.4-5.2-20.8-9.2c-4.4-3.6-6.8-9.2-6.8-16.4s2.4-13.2,7.6-18c5.2-4.8,11.6-7.2,20-7.6v-6.4h8v6.8c9.2,0.8,18,4,26.4,9.6
	l-8.4,11.6c-5.6-4-11.6-6.4-18-7.2v24h0.4c9.6,2.4,16.8,5.2,21.6,9.2c4.4,4,6.8,9.6,6.8,16.8c0,7.6-2.8,13.6-8,18
	c-5.2,4.8-12,7.2-20.8,7.6v9.2L184.4,268.8L184.4,268.8z M175.6,186.8c-2,2-3.2,4.4-3.2,7.2s0.8,5.2,2.4,6.8
	c1.6,1.6,4.8,3.2,9.6,4.8v-22C180.8,183.6,177.6,184.8,175.6,186.8z M202.4,242.4c2.4-2,3.6-4.4,3.6-7.2s-0.8-5.2-2.8-7.2
	c-2-1.6-5.2-3.2-10.4-4.8V246C196.8,245.6,200,244.4,202.4,242.4z"/>
<g>
</g>
<g>
</g>
<g>
</g>
<g>
</g>
<g>
</g>
<g>
</g>
<g>
</g>
<g>
</g>
<g>
</g>
<g>
</g>
<g>
</g>
<g>
</g>
<g>
</g>
<g>
</g>
<g>
</g>
</svg>
