<?xml version="1.0" encoding="iso-8859-1"?>
<!-- Generator: Adobe Illustrator 19.0.0, SVG Export Plug-In . SVG Version: 6.00 Build 0)  -->
<svg version="1.1" id="Layer_1" xmlns="http://www.w3.org/2000/svg" xmlns:xlink="http://www.w3.org/1999/xlink" x="0px" y="0px"
	 viewBox="0 0 506 506" style="enable-background:new 0 0 506 506;" xml:space="preserve">
<circle style="fill:#90DFAA;" cx="253" cy="253" r="253"/>
<path style="fill:#FF7058;" d="M253,145L253,145c-47.1,0-85.3,38.2-85.3,85.3v110.6h170.6V230.3C338.3,183.2,300.1,145,253,145z"/>
<rect x="140.8" y="340.9" style="fill:#324A5E;" width="224.3" height="50.7"/>
<path style="fill:#F1543F;" d="M291.4,223.4h-76.8c-8.7,0-15.7,7.1-15.7,15.7l0,0c0,8.7,7.1,15.7,15.7,15.7h22.7v86h31.5v-86h22.7
	c8.7,0,15.7-7.1,15.7-15.7l0,0C307.2,230.4,300.1,223.4,291.4,223.4z"/>
<g>
	<rect x="246.7" y="114.4" style="fill:#FFFFFF;" width="12.7" height="22.5"/>
	<rect x="347.1" y="224.6" style="fill:#FFFFFF;" width="22.5" height="12.7"/>
	<rect x="136.5" y="224.6" style="fill:#FFFFFF;" width="22.5" height="12.7"/>
	
		<rect x="321.084" y="145.188" transform="matrix(-0.7071 -0.7071 0.7071 -0.7071 448.3464 498.5877)" style="fill:#FFFFFF;" width="12.7" height="22.5"/>
	
		<rect x="172.179" y="145.177" transform="matrix(0.7071 -0.7071 0.7071 0.7071 -58.3206 172.0554)" style="fill:#FFFFFF;" width="12.7" height="22.5"/>
</g>
<g>
</g>
<g>
</g>
<g>
</g>
<g>
</g>
<g>
</g>
<g>
</g>
<g>
</g>
<g>
</g>
<g>
</g>
<g>
</g>
<g>
</g>
<g>
</g>
<g>
</g>
<g>
</g>
<g>
</g>
</svg>
